<?xml version="1.0" encoding="iso-8859-1"?>
<!-- Generator: Adobe Illustrator 19.0.0, SVG Export Plug-In . SVG Version: 6.00 Build 0)  -->
<svg version="1.1" id="Capa_1" xmlns="http://www.w3.org/2000/svg" xmlns:xlink="http://www.w3.org/1999/xlink" x="0px" y="0px"
	 viewBox="0 0 512 512" style="enable-background:new 0 0 512 512;" xml:space="preserve">
<path style="fill:#303C42;" d="M384,0H128c-23.531,0-42.667,19.135-42.667,42.667v426.667C85.333,492.865,104.469,512,128,512h256
	c23.531,0,42.667-19.135,42.667-42.667V42.667C426.667,19.135,407.531,0,384,0z"/>
<path style="fill:#5C6671;" d="M405.333,448H106.667V42.667c0-11.76,9.573-21.333,21.333-21.333h256
	c11.76,0,21.333,9.573,21.333,21.333V448z"/>
<linearGradient id="SVGID_1_" gradientUnits="userSpaceOnUse" x1="-44.0544" y1="639.6635" x2="-25.1927" y2="630.8681" gradientTransform="matrix(21.3333 0 0 -21.3333 996.3334 13791.667)">
	<stop  offset="0" style="stop-color:#FFFFFF;stop-opacity:0.2"/>
	<stop  offset="1" style="stop-color:#FFFFFF;stop-opacity:0"/>
</linearGradient>
<path style="fill:url(#SVGID_1_);" d="M405.333,448H106.667V42.667c0-11.76,9.573-21.333,21.333-21.333h256
	c11.76,0,21.333,9.573,21.333,21.333V448z"/>
<linearGradient id="SVGID_2_" gradientUnits="userSpaceOnUse" x1="-39.6642" y1="641.8632" x2="-34.5074" y2="639.462" gradientTransform="matrix(21.3333 0 0 -21.3333 996.3334 13791.667)">
	<stop  offset="0" style="stop-color:#FFFFFF;stop-opacity:0.05"/>
	<stop  offset="1" style="stop-color:#FFFFFF;stop-opacity:0"/>
</linearGradient>
<polygon style="fill:url(#SVGID_2_);" points="106.667,192 277.333,21.333 320,21.333 106.667,234.667 "/>
<linearGradient id="SVGID_3_" gradientUnits="userSpaceOnUse" x1="-38.5102" y1="639.8283" x2="-31.6507" y2="636.6281" gradientTransform="matrix(21.3333 0 0 -21.3333 996.3334 13791.667)">
	<stop  offset="0" style="stop-color:#FFFFFF;stop-opacity:0.05"/>
	<stop  offset="1" style="stop-color:#FFFFFF;stop-opacity:0"/>
</linearGradient>
<path style="fill:url(#SVGID_3_);" d="M384,21.333h-10.667L106.667,288v42.667L403.375,33.958
	C400.026,26.552,392.641,21.333,384,21.333z"/>
<g>
	<path style="fill:#303C42;" d="M266.667,42.667h-21.333c-5.896,0-10.667,4.771-10.667,10.667S239.438,64,245.333,64h21.333
		c5.896,0,10.667-4.771,10.667-10.667S272.563,42.667,266.667,42.667z"/>
	<circle style="fill:#303C42;" cx="373.333" cy="53.333" r="10.667"/>
	<path style="fill:#303C42;" d="M213.333,339.368v33.965c0,5.896,4.771,10.667,10.667,10.667c5.896,0,10.667-4.771,10.667-10.667
		v-32h42.667v32c0,5.896,4.771,10.667,10.667,10.667c5.896,0,10.667-4.771,10.667-10.667v-33.965
		C311.056,334.951,320,323.221,320,309.333v-96c0-13.799-4.49-26.508-11.945-36.971l8.82-8.82c4.167-4.167,4.167-10.917,0-15.083
		c-4.167-4.167-10.917-4.167-15.083,0l-8.82,8.82c-10.464-7.456-23.172-11.945-36.971-11.945c-13.799,0-26.508,4.49-36.971,11.945
		l-8.82-8.82c-4.167-4.167-10.917-4.167-15.083,0c-4.167,4.167-4.167,10.917,0,15.083l8.82,8.82
		C196.49,186.826,192,199.534,192,213.333v96C192,323.221,200.944,334.951,213.333,339.368z"/>
</g>
<g>
	<path style="fill:#7CB342;" d="M288,320h-64c-5.885,0-10.667-4.781-10.667-10.667v-74.667h85.333v74.667
		C298.667,315.219,293.885,320,288,320z"/>
	<path style="fill:#7CB342;" d="M256,170.667c23.531,0,42.667,19.135,42.667,42.667h-85.333
		C213.333,189.802,232.469,170.667,256,170.667z"/>
</g>
<g>
	<path style="fill:#303C42;" d="M341.333,320c5.896,0,10.667-4.771,10.667-10.667V224c0-5.896-4.771-10.667-10.667-10.667
		s-10.667,4.771-10.667,10.667v85.333C330.667,315.229,335.438,320,341.333,320z"/>
	<path style="fill:#303C42;" d="M170.667,320c5.896,0,10.667-4.771,10.667-10.667V224c0-5.896-4.771-10.667-10.667-10.667
		S160,218.104,160,224v85.333C160,315.229,164.771,320,170.667,320z"/>
</g>
<path style="opacity:0.2;fill:#FFFFFF;enable-background:new    ;" d="M261.103,175.77c10.464,0,19.932,3.931,27.362,10.202
	c-7.832-9.277-19.397-15.305-32.465-15.305c-23.531,0-42.667,19.135-42.667,42.667h5.618
	C221.508,192.229,239.319,175.77,261.103,175.77z"/>
<path style="opacity:0.1;enable-background:new    ;" d="M293.564,234.667v69.564c0,5.885-4.781,10.667-10.667,10.667h-64
	c-1.621,0-3.117-0.422-4.493-1.07c1.706,3.622,5.332,6.173,9.596,6.173h64c5.885,0,10.667-4.781,10.667-10.667v-74.667H293.564z"/>
<linearGradient id="SVGID_4_" gradientUnits="userSpaceOnUse" x1="-45.2743" y1="639.4139" x2="-24.1319" y2="629.5548" gradientTransform="matrix(21.3333 0 0 -21.3333 996.3334 13791.667)">
	<stop  offset="0" style="stop-color:#FFFFFF;stop-opacity:0.2"/>
	<stop  offset="1" style="stop-color:#FFFFFF;stop-opacity:0"/>
</linearGradient>
<path style="fill:url(#SVGID_4_);" d="M384,0H128c-23.531,0-42.667,19.135-42.667,42.667v426.667
	C85.333,492.865,104.469,512,128,512h256c23.531,0,42.667-19.135,42.667-42.667V42.667C426.667,19.135,407.531,0,384,0z"/>
<g>
</g>
<g>
</g>
<g>
</g>
<g>
</g>
<g>
</g>
<g>
</g>
<g>
</g>
<g>
</g>
<g>
</g>
<g>
</g>
<g>
</g>
<g>
</g>
<g>
</g>
<g>
</g>
<g>
</g>
</svg>
